<mxfile host="Electron" modified="2025-01-06T08:40:34.050Z" agent="Mozilla/5.0 (X11; Linux x86_64) AppleWebKit/537.36 (KHTML, like Gecko) draw.io/24.6.1 Chrome/124.0.6367.207 Electron/30.0.6 Safari/537.36" etag="VlguqamhKlAV6qktynYs" version="24.6.1" type="device">
  <diagram name="Page-1" id="ASi684Sv3Cu8FFYP-zhA">
    <mxGraphModel dx="-1080" dy="455" grid="1" gridSize="10" guides="1" tooltips="1" connect="1" arrows="1" fold="1" page="1" pageScale="1" pageWidth="850" pageHeight="1100" math="0" shadow="0">
      <root>
        <mxCell id="0" />
        <mxCell id="1" parent="0" />
        <mxCell id="5y_z80_yedbfLqYKamo8-82" value="&lt;p style=&quot;margin:0px;margin-top:4px;margin-left:10px;text-align:left;&quot;&gt;&lt;b&gt;sd&lt;/b&gt;&amp;nbsp;QSSL &amp;gt; Celestial Objects Submodule Interactions&lt;/p&gt;" style="html=1;shape=mxgraph.sysml.package;labelX=304.33;html=1;overflow=fill;strokeWidth=1;recursiveResize=0;" vertex="1" parent="1">
          <mxGeometry x="3470" y="1270" width="630" height="1050" as="geometry" />
        </mxCell>
        <mxCell id="5y_z80_yedbfLqYKamo8-83" value="alt" style="shape=umlFrame;whiteSpace=wrap;html=1;pointerEvents=0;recursiveResize=0;container=1;collapsible=0;width=30;height=15;fontSize=8;" vertex="1" parent="1">
          <mxGeometry x="3650" y="1360" width="240" height="150" as="geometry" />
        </mxCell>
        <mxCell id="5y_z80_yedbfLqYKamo8-84" value="[ init success ]" style="text;html=1;fontSize=8;" vertex="1" parent="5y_z80_yedbfLqYKamo8-83">
          <mxGeometry width="60" height="20" relative="1" as="geometry">
            <mxPoint y="14" as="offset" />
          </mxGeometry>
        </mxCell>
        <mxCell id="5y_z80_yedbfLqYKamo8-85" value="" style="html=1;verticalAlign=bottom;labelBackgroundColor=none;endArrow=none;endFill=0;dashed=1;rounded=0;entryX=1;entryY=0.501;entryDx=0;entryDy=0;entryPerimeter=0;" edge="1" parent="5y_z80_yedbfLqYKamo8-83" target="5y_z80_yedbfLqYKamo8-83">
          <mxGeometry width="160" relative="1" as="geometry">
            <mxPoint y="74.79999999999995" as="sourcePoint" />
            <mxPoint x="160" y="74.79999999999995" as="targetPoint" />
          </mxGeometry>
        </mxCell>
        <mxCell id="5y_z80_yedbfLqYKamo8-86" value="[ init failed ]" style="text;html=1;fontSize=8;" vertex="1" parent="5y_z80_yedbfLqYKamo8-83">
          <mxGeometry y="73.00000000000023" width="100" height="20" as="geometry" />
        </mxCell>
        <mxCell id="5y_z80_yedbfLqYKamo8-87" value="create object from submodule" style="endArrow=open;startArrow=none;endFill=0;startFill=0;endSize=6;html=1;verticalAlign=bottom;labelBackgroundColor=none;strokeWidth=1;rounded=0;fontSize=7;" edge="1" parent="5y_z80_yedbfLqYKamo8-83">
          <mxGeometry width="160" relative="1" as="geometry">
            <mxPoint x="65" y="100" as="sourcePoint" />
            <mxPoint x="215" y="100" as="targetPoint" />
          </mxGeometry>
        </mxCell>
        <mxCell id="5y_z80_yedbfLqYKamo8-88" value="alt" style="shape=umlFrame;whiteSpace=wrap;html=1;pointerEvents=0;recursiveResize=0;container=1;collapsible=0;width=30;height=15;fontSize=8;" vertex="1" parent="1">
          <mxGeometry x="3490" y="1600" width="570" height="610" as="geometry" />
        </mxCell>
        <mxCell id="5y_z80_yedbfLqYKamo8-91" value="" style="html=1;verticalAlign=bottom;labelBackgroundColor=none;endArrow=none;endFill=0;dashed=1;rounded=0;entryX=1;entryY=0.311;entryDx=0;entryDy=0;entryPerimeter=0;" edge="1" parent="5y_z80_yedbfLqYKamo8-88" target="5y_z80_yedbfLqYKamo8-88">
          <mxGeometry width="160" relative="1" as="geometry">
            <mxPoint y="190" as="sourcePoint" />
            <mxPoint x="240.00000000000045" y="252.97500000000036" as="targetPoint" />
          </mxGeometry>
        </mxCell>
        <mxCell id="5y_z80_yedbfLqYKamo8-163" value="[ call create ]" style="text;html=1;fontSize=8;" vertex="1" parent="5y_z80_yedbfLqYKamo8-88">
          <mxGeometry y="20" width="60" height="20" as="geometry" />
        </mxCell>
        <mxCell id="5y_z80_yedbfLqYKamo8-92" value="alt" style="shape=umlFrame;whiteSpace=wrap;html=1;pointerEvents=0;recursiveResize=0;container=1;collapsible=0;width=30;height=15;fontSize=8;" vertex="1" parent="1">
          <mxGeometry x="3760" y="1888" width="290" height="312" as="geometry" />
        </mxCell>
        <mxCell id="5y_z80_yedbfLqYKamo8-93" value="[ from database ]" style="text;html=1;fontSize=8;" vertex="1" parent="5y_z80_yedbfLqYKamo8-92">
          <mxGeometry width="60" height="20" relative="1" as="geometry">
            <mxPoint y="14" as="offset" />
          </mxGeometry>
        </mxCell>
        <mxCell id="5y_z80_yedbfLqYKamo8-94" value="[ from system ]" style="text;html=1;fontSize=8;" vertex="1" parent="5y_z80_yedbfLqYKamo8-92">
          <mxGeometry y="73.00000000000023" width="100" height="20" as="geometry" />
        </mxCell>
        <mxCell id="5y_z80_yedbfLqYKamo8-95" value="" style="shape=umlLifeline;perimeter=lifelinePerimeter;whiteSpace=wrap;html=1;container=1;dropTarget=0;collapsible=0;recursiveResize=0;outlineConnect=0;portConstraint=eastwest;newEdgeStyle={&quot;curved&quot;:0,&quot;rounded&quot;:0};participant=umlActor;fontSize=9;" vertex="1" parent="1">
          <mxGeometry x="3540" y="1310" width="20" height="990" as="geometry" />
        </mxCell>
        <mxCell id="5y_z80_yedbfLqYKamo8-96" value="" style="html=1;points=[[0,0,0,0,5],[0,1,0,0,-5],[1,0,0,0,5],[1,1,0,0,-5]];perimeter=orthogonalPerimeter;outlineConnect=0;targetShapes=umlLifeline;portConstraint=eastwest;newEdgeStyle={&quot;curved&quot;:0,&quot;rounded&quot;:0};" vertex="1" parent="5y_z80_yedbfLqYKamo8-95">
          <mxGeometry x="5" y="80" width="10" height="110" as="geometry" />
        </mxCell>
        <mxCell id="5y_z80_yedbfLqYKamo8-97" value="" style="html=1;points=[[0,0,0,0,5],[0,1,0,0,-5],[1,0,0,0,5],[1,1,0,0,-5]];perimeter=orthogonalPerimeter;outlineConnect=0;targetShapes=umlLifeline;portConstraint=eastwest;newEdgeStyle={&quot;curved&quot;:0,&quot;rounded&quot;:0};" vertex="1" parent="5y_z80_yedbfLqYKamo8-95">
          <mxGeometry x="5" y="210" width="10" height="10" as="geometry" />
        </mxCell>
        <mxCell id="5y_z80_yedbfLqYKamo8-98" value="" style="html=1;points=[[0,0,0,0,5],[0,1,0,0,-5],[1,0,0,0,5],[1,1,0,0,-5]];perimeter=orthogonalPerimeter;outlineConnect=0;targetShapes=umlLifeline;portConstraint=eastwest;newEdgeStyle={&quot;curved&quot;:0,&quot;rounded&quot;:0};" vertex="1" parent="5y_z80_yedbfLqYKamo8-95">
          <mxGeometry x="5" y="310" width="10" height="160" as="geometry" />
        </mxCell>
        <mxCell id="5y_z80_yedbfLqYKamo8-99" value="" style="html=1;points=[[0,0,0,0,5],[0,1,0,0,-5],[1,0,0,0,5],[1,1,0,0,-5]];perimeter=orthogonalPerimeter;outlineConnect=0;targetShapes=umlLifeline;portConstraint=eastwest;newEdgeStyle={&quot;curved&quot;:0,&quot;rounded&quot;:0};" vertex="1" parent="5y_z80_yedbfLqYKamo8-95">
          <mxGeometry x="5" y="500" width="10" height="380" as="geometry" />
        </mxCell>
        <mxCell id="5y_z80_yedbfLqYKamo8-100" value=": QSSL Library" style="shape=umlLifeline;perimeter=lifelinePerimeter;whiteSpace=wrap;html=1;container=1;dropTarget=0;collapsible=0;recursiveResize=0;outlineConnect=0;portConstraint=eastwest;newEdgeStyle={&quot;curved&quot;:0,&quot;rounded&quot;:0};fontSize=9;" vertex="1" parent="1">
          <mxGeometry x="3660" y="1310" width="100" height="990" as="geometry" />
        </mxCell>
        <mxCell id="5y_z80_yedbfLqYKamo8-101" value="" style="html=1;points=[[0,0,0,0,5],[0,1,0,0,-5],[1,0,0,0,5],[1,1,0,0,-5]];perimeter=orthogonalPerimeter;outlineConnect=0;targetShapes=umlLifeline;portConstraint=eastwest;newEdgeStyle={&quot;curved&quot;:0,&quot;rounded&quot;:0};" vertex="1" parent="5y_z80_yedbfLqYKamo8-100">
          <mxGeometry x="45" y="80" width="10" height="30" as="geometry" />
        </mxCell>
        <mxCell id="5y_z80_yedbfLqYKamo8-102" value="" style="html=1;points=[[0,0,0,0,5],[0,1,0,0,-5],[1,0,0,0,5],[1,1,0,0,-5]];perimeter=orthogonalPerimeter;outlineConnect=0;targetShapes=umlLifeline;portConstraint=eastwest;newEdgeStyle={&quot;curved&quot;:0,&quot;rounded&quot;:0};" vertex="1" parent="5y_z80_yedbfLqYKamo8-100">
          <mxGeometry x="45" y="143" width="10" height="30" as="geometry" />
        </mxCell>
        <mxCell id="5y_z80_yedbfLqYKamo8-103" value=": CelestialObjects" style="shape=umlLifeline;perimeter=lifelinePerimeter;whiteSpace=wrap;html=1;container=1;dropTarget=0;collapsible=0;recursiveResize=0;outlineConnect=0;portConstraint=eastwest;newEdgeStyle={&quot;curved&quot;:0,&quot;rounded&quot;:0};fontSize=9;" vertex="1" parent="1">
          <mxGeometry x="3820" y="1310" width="100" height="990" as="geometry" />
        </mxCell>
        <mxCell id="5y_z80_yedbfLqYKamo8-104" value="" style="html=1;points=[[0,0,0,0,5],[0,1,0,0,-5],[1,0,0,0,5],[1,1,0,0,-5]];perimeter=orthogonalPerimeter;outlineConnect=0;targetShapes=umlLifeline;portConstraint=eastwest;newEdgeStyle={&quot;curved&quot;:0,&quot;rounded&quot;:0};" vertex="1" parent="5y_z80_yedbfLqYKamo8-103">
          <mxGeometry x="45" y="80" width="10" height="30" as="geometry" />
        </mxCell>
        <mxCell id="5y_z80_yedbfLqYKamo8-105" value="" style="html=1;points=[[0,0,0,0,5],[0,1,0,0,-5],[1,0,0,0,5],[1,1,0,0,-5]];perimeter=orthogonalPerimeter;outlineConnect=0;targetShapes=umlLifeline;portConstraint=eastwest;newEdgeStyle={&quot;curved&quot;:0,&quot;rounded&quot;:0};" vertex="1" parent="5y_z80_yedbfLqYKamo8-103">
          <mxGeometry x="45" y="143" width="10" height="30" as="geometry" />
        </mxCell>
        <mxCell id="5y_z80_yedbfLqYKamo8-106" value="" style="html=1;points=[[0,0,0,0,5],[0,1,0,0,-5],[1,0,0,0,5],[1,1,0,0,-5]];perimeter=orthogonalPerimeter;outlineConnect=0;targetShapes=umlLifeline;portConstraint=eastwest;newEdgeStyle={&quot;curved&quot;:0,&quot;rounded&quot;:0};" vertex="1" parent="5y_z80_yedbfLqYKamo8-103">
          <mxGeometry x="45" y="210" width="10" height="20" as="geometry" />
        </mxCell>
        <mxCell id="5y_z80_yedbfLqYKamo8-107" value="" style="html=1;points=[[0,0,0,0,5],[0,1,0,0,-5],[1,0,0,0,5],[1,1,0,0,-5]];perimeter=orthogonalPerimeter;outlineConnect=0;targetShapes=umlLifeline;portConstraint=eastwest;newEdgeStyle={&quot;curved&quot;:0,&quot;rounded&quot;:0};" vertex="1" parent="5y_z80_yedbfLqYKamo8-103">
          <mxGeometry x="45" y="260" width="10" height="20" as="geometry" />
        </mxCell>
        <mxCell id="5y_z80_yedbfLqYKamo8-108" value="request to manage Celestial Object" style="edgeStyle=orthogonalEdgeStyle;rounded=0;orthogonalLoop=1;jettySize=auto;html=1;curved=0;entryX=0;entryY=0;entryDx=0;entryDy=5;entryPerimeter=0;fontSize=7;exitX=0;exitY=1;exitDx=0;exitDy=-5;exitPerimeter=0;endArrow=open;endFill=0;" edge="1" parent="5y_z80_yedbfLqYKamo8-103" source="5y_z80_yedbfLqYKamo8-106" target="5y_z80_yedbfLqYKamo8-107">
          <mxGeometry relative="1" as="geometry">
            <Array as="points">
              <mxPoint x="10" y="225" />
              <mxPoint x="10" y="265" />
            </Array>
          </mxGeometry>
        </mxCell>
        <mxCell id="5y_z80_yedbfLqYKamo8-109" value="check info" style="edgeStyle=orthogonalEdgeStyle;rounded=0;orthogonalLoop=1;jettySize=auto;html=1;curved=0;fontSize=7;entryX=1;entryY=0;entryDx=0;entryDy=5;entryPerimeter=0;endArrow=open;endFill=0;strokeColor=#97D077;" edge="1" parent="5y_z80_yedbfLqYKamo8-103" source="5y_z80_yedbfLqYKamo8-110" target="5y_z80_yedbfLqYKamo8-114">
          <mxGeometry x="0.0588" relative="1" as="geometry">
            <Array as="points">
              <mxPoint x="90" y="340" />
              <mxPoint x="90" y="365" />
            </Array>
            <mxPoint as="offset" />
          </mxGeometry>
        </mxCell>
        <mxCell id="5y_z80_yedbfLqYKamo8-110" value="" style="html=1;points=[[0,0,0,0,5],[0,1,0,0,-5],[1,0,0,0,5],[1,1,0,0,-5]];perimeter=orthogonalPerimeter;outlineConnect=0;targetShapes=umlLifeline;portConstraint=eastwest;newEdgeStyle={&quot;curved&quot;:0,&quot;rounded&quot;:0};" vertex="1" parent="5y_z80_yedbfLqYKamo8-103">
          <mxGeometry x="45" y="300" width="10" height="150" as="geometry" />
        </mxCell>
        <mxCell id="5y_z80_yedbfLqYKamo8-111" style="edgeStyle=orthogonalEdgeStyle;rounded=0;orthogonalLoop=1;jettySize=auto;html=1;curved=0;entryX=0;entryY=0;entryDx=0;entryDy=5;entryPerimeter=0;exitX=0;exitY=1;exitDx=0;exitDy=-5;exitPerimeter=0;fontSize=7;endArrow=open;endFill=0;strokeColor=#67AB9F;" edge="1" parent="5y_z80_yedbfLqYKamo8-103" source="5y_z80_yedbfLqYKamo8-107" target="5y_z80_yedbfLqYKamo8-110">
          <mxGeometry relative="1" as="geometry">
            <Array as="points">
              <mxPoint x="10" y="275" />
              <mxPoint x="10" y="305" />
            </Array>
          </mxGeometry>
        </mxCell>
        <mxCell id="5y_z80_yedbfLqYKamo8-112" style="edgeStyle=orthogonalEdgeStyle;rounded=0;orthogonalLoop=1;jettySize=auto;html=1;curved=0;entryX=0;entryY=0;entryDx=0;entryDy=5;entryPerimeter=0;endArrow=open;endFill=0;exitX=0;exitY=1;exitDx=0;exitDy=-5;exitPerimeter=0;strokeColor=#67AB9F;" edge="1" parent="5y_z80_yedbfLqYKamo8-103" source="5y_z80_yedbfLqYKamo8-113" target="5y_z80_yedbfLqYKamo8-118">
          <mxGeometry relative="1" as="geometry">
            <Array as="points">
              <mxPoint x="10" y="565" />
              <mxPoint x="10" y="590" />
            </Array>
          </mxGeometry>
        </mxCell>
        <mxCell id="5y_z80_yedbfLqYKamo8-113" value="" style="html=1;points=[[0,0,0,0,5],[0,1,0,0,-5],[1,0,0,0,5],[1,1,0,0,-5]];perimeter=orthogonalPerimeter;outlineConnect=0;targetShapes=umlLifeline;portConstraint=eastwest;newEdgeStyle={&quot;curved&quot;:0,&quot;rounded&quot;:0};" vertex="1" parent="5y_z80_yedbfLqYKamo8-103">
          <mxGeometry x="45" y="490" width="10" height="80" as="geometry" />
        </mxCell>
        <mxCell id="5y_z80_yedbfLqYKamo8-114" value="" style="html=1;points=[[0,0,0,0,5],[0,1,0,0,-5],[1,0,0,0,5],[1,1,0,0,-5]];perimeter=orthogonalPerimeter;outlineConnect=0;targetShapes=umlLifeline;portConstraint=eastwest;newEdgeStyle={&quot;curved&quot;:0,&quot;rounded&quot;:0};" vertex="1" parent="5y_z80_yedbfLqYKamo8-103">
          <mxGeometry x="55" y="360" width="10" height="30" as="geometry" />
        </mxCell>
        <mxCell id="5y_z80_yedbfLqYKamo8-115" value="" style="html=1;points=[[0,0,0,0,5],[0,1,0,0,-5],[1,0,0,0,5],[1,1,0,0,-5]];perimeter=orthogonalPerimeter;outlineConnect=0;targetShapes=umlLifeline;portConstraint=eastwest;newEdgeStyle={&quot;curved&quot;:0,&quot;rounded&quot;:0};" vertex="1" parent="5y_z80_yedbfLqYKamo8-103">
          <mxGeometry x="55" y="400" width="10" height="10" as="geometry" />
        </mxCell>
        <mxCell id="5y_z80_yedbfLqYKamo8-116" value="create" style="edgeStyle=orthogonalEdgeStyle;rounded=0;orthogonalLoop=1;jettySize=auto;html=1;curved=0;entryX=1;entryY=0;entryDx=0;entryDy=5;entryPerimeter=0;fontSize=7;endArrow=open;endFill=0;strokeColor=#97D077;" edge="1" parent="5y_z80_yedbfLqYKamo8-103" source="5y_z80_yedbfLqYKamo8-114" target="5y_z80_yedbfLqYKamo8-115">
          <mxGeometry relative="1" as="geometry">
            <Array as="points">
              <mxPoint x="90" y="375" />
              <mxPoint x="90" y="405" />
            </Array>
          </mxGeometry>
        </mxCell>
        <mxCell id="5y_z80_yedbfLqYKamo8-117" value="check" style="edgeStyle=orthogonalEdgeStyle;rounded=0;orthogonalLoop=1;jettySize=auto;html=1;curved=0;fontSize=7;endArrow=open;endFill=0;strokeColor=#97D077;" edge="1" parent="5y_z80_yedbfLqYKamo8-103" source="5y_z80_yedbfLqYKamo8-107" target="5y_z80_yedbfLqYKamo8-107">
          <mxGeometry relative="1" as="geometry" />
        </mxCell>
        <mxCell id="5y_z80_yedbfLqYKamo8-118" value="" style="html=1;points=[[0,0,0,0,5],[0,1,0,0,-5],[1,0,0,0,5],[1,1,0,0,-5]];perimeter=orthogonalPerimeter;outlineConnect=0;targetShapes=umlLifeline;portConstraint=eastwest;newEdgeStyle={&quot;curved&quot;:0,&quot;rounded&quot;:0};" vertex="1" parent="5y_z80_yedbfLqYKamo8-103">
          <mxGeometry x="45" y="585" width="10" height="135" as="geometry" />
        </mxCell>
        <mxCell id="5y_z80_yedbfLqYKamo8-119" style="edgeStyle=orthogonalEdgeStyle;rounded=0;orthogonalLoop=1;jettySize=auto;html=1;curved=0;entryX=0;entryY=0;entryDx=0;entryDy=5;entryPerimeter=0;exitX=0;exitY=1;exitDx=0;exitDy=-5;exitPerimeter=0;endArrow=open;endFill=0;strokeColor=#67AB9F;" edge="1" parent="5y_z80_yedbfLqYKamo8-103" source="5y_z80_yedbfLqYKamo8-107" target="5y_z80_yedbfLqYKamo8-113">
          <mxGeometry relative="1" as="geometry">
            <Array as="points">
              <mxPoint x="10" y="275" />
              <mxPoint x="10" y="495" />
            </Array>
          </mxGeometry>
        </mxCell>
        <mxCell id="5y_z80_yedbfLqYKamo8-120" value="" style="html=1;points=[[0,0,0,0,5],[0,1,0,0,-5],[1,0,0,0,5],[1,1,0,0,-5]];perimeter=orthogonalPerimeter;outlineConnect=0;targetShapes=umlLifeline;portConstraint=eastwest;newEdgeStyle={&quot;curved&quot;:0,&quot;rounded&quot;:0};" vertex="1" parent="5y_z80_yedbfLqYKamo8-103">
          <mxGeometry x="55" y="610" width="10" height="30" as="geometry" />
        </mxCell>
        <mxCell id="5y_z80_yedbfLqYKamo8-121" value="" style="html=1;points=[[0,0,0,0,5],[0,1,0,0,-5],[1,0,0,0,5],[1,1,0,0,-5]];perimeter=orthogonalPerimeter;outlineConnect=0;targetShapes=umlLifeline;portConstraint=eastwest;newEdgeStyle={&quot;curved&quot;:0,&quot;rounded&quot;:0};" vertex="1" parent="5y_z80_yedbfLqYKamo8-103">
          <mxGeometry x="55" y="655" width="10" height="25" as="geometry" />
        </mxCell>
        <mxCell id="5y_z80_yedbfLqYKamo8-122" value="check compatibility" style="edgeStyle=orthogonalEdgeStyle;rounded=0;orthogonalLoop=1;jettySize=auto;html=1;curved=0;entryX=1;entryY=0;entryDx=0;entryDy=5;entryPerimeter=0;fontSize=6;endArrow=open;endFill=0;strokeColor=#97D077;" edge="1" parent="5y_z80_yedbfLqYKamo8-103" target="5y_z80_yedbfLqYKamo8-121">
          <mxGeometry relative="1" as="geometry">
            <mxPoint x="65" y="630" as="sourcePoint" />
            <Array as="points">
              <mxPoint x="90" y="630" />
              <mxPoint x="90" y="660" />
            </Array>
          </mxGeometry>
        </mxCell>
        <mxCell id="5y_z80_yedbfLqYKamo8-123" value="load on class object" style="edgeStyle=orthogonalEdgeStyle;rounded=0;orthogonalLoop=1;jettySize=auto;html=1;curved=0;fontSize=6;endArrow=open;endFill=0;strokeColor=#97D077;exitX=1;exitY=1;exitDx=0;exitDy=-5;exitPerimeter=0;" edge="1" parent="5y_z80_yedbfLqYKamo8-103" source="5y_z80_yedbfLqYKamo8-121">
          <mxGeometry x="-0.0588" relative="1" as="geometry">
            <mxPoint x="65" y="675.0117647058823" as="sourcePoint" />
            <Array as="points">
              <mxPoint x="90" y="675" />
              <mxPoint x="90" y="705" />
            </Array>
            <mxPoint x="55" y="705" as="targetPoint" />
            <mxPoint as="offset" />
          </mxGeometry>
        </mxCell>
        <mxCell id="5y_z80_yedbfLqYKamo8-124" value="" style="html=1;points=[[0,0,0,0,5],[0,1,0,0,-5],[1,0,0,0,5],[1,1,0,0,-5]];perimeter=orthogonalPerimeter;outlineConnect=0;targetShapes=umlLifeline;portConstraint=eastwest;newEdgeStyle={&quot;curved&quot;:0,&quot;rounded&quot;:0};" vertex="1" parent="5y_z80_yedbfLqYKamo8-103">
          <mxGeometry x="45" y="740" width="10" height="140" as="geometry" />
        </mxCell>
        <mxCell id="5y_z80_yedbfLqYKamo8-125" value="check if exists" style="edgeStyle=orthogonalEdgeStyle;rounded=0;orthogonalLoop=1;jettySize=auto;html=1;curved=0;fontSize=7;entryX=1;entryY=0;entryDx=0;entryDy=5;entryPerimeter=0;endArrow=open;endFill=0;strokeColor=#97D077;" edge="1" parent="5y_z80_yedbfLqYKamo8-103" target="5y_z80_yedbfLqYKamo8-126">
          <mxGeometry x="0.0588" relative="1" as="geometry">
            <mxPoint x="55" y="750" as="sourcePoint" />
            <Array as="points">
              <mxPoint x="90" y="750" />
              <mxPoint x="90" y="775" />
            </Array>
            <mxPoint as="offset" />
          </mxGeometry>
        </mxCell>
        <mxCell id="5y_z80_yedbfLqYKamo8-126" value="" style="html=1;points=[[0,0,0,0,5],[0,1,0,0,-5],[1,0,0,0,5],[1,1,0,0,-5]];perimeter=orthogonalPerimeter;outlineConnect=0;targetShapes=umlLifeline;portConstraint=eastwest;newEdgeStyle={&quot;curved&quot;:0,&quot;rounded&quot;:0};" vertex="1" parent="5y_z80_yedbfLqYKamo8-103">
          <mxGeometry x="55" y="770" width="10" height="30" as="geometry" />
        </mxCell>
        <mxCell id="5y_z80_yedbfLqYKamo8-127" value="" style="html=1;points=[[0,0,0,0,5],[0,1,0,0,-5],[1,0,0,0,5],[1,1,0,0,-5]];perimeter=orthogonalPerimeter;outlineConnect=0;targetShapes=umlLifeline;portConstraint=eastwest;newEdgeStyle={&quot;curved&quot;:0,&quot;rounded&quot;:0};" vertex="1" parent="5y_z80_yedbfLqYKamo8-103">
          <mxGeometry x="55" y="815" width="10" height="25" as="geometry" />
        </mxCell>
        <mxCell id="5y_z80_yedbfLqYKamo8-128" value="check compatibility" style="edgeStyle=orthogonalEdgeStyle;rounded=0;orthogonalLoop=1;jettySize=auto;html=1;curved=0;entryX=1;entryY=0;entryDx=0;entryDy=5;entryPerimeter=0;fontSize=6;endArrow=open;endFill=0;strokeColor=#97D077;" edge="1" parent="5y_z80_yedbfLqYKamo8-103" target="5y_z80_yedbfLqYKamo8-127">
          <mxGeometry relative="1" as="geometry">
            <mxPoint x="65" y="790" as="sourcePoint" />
            <Array as="points">
              <mxPoint x="90" y="790" />
              <mxPoint x="90" y="820" />
            </Array>
          </mxGeometry>
        </mxCell>
        <mxCell id="5y_z80_yedbfLqYKamo8-129" value="load on class object" style="edgeStyle=orthogonalEdgeStyle;rounded=0;orthogonalLoop=1;jettySize=auto;html=1;curved=0;fontSize=6;endArrow=open;endFill=0;strokeColor=#97D077;exitX=1;exitY=1;exitDx=0;exitDy=-5;exitPerimeter=0;" edge="1" parent="5y_z80_yedbfLqYKamo8-103" source="5y_z80_yedbfLqYKamo8-127">
          <mxGeometry x="-0.0588" relative="1" as="geometry">
            <mxPoint x="65" y="835.0117647058823" as="sourcePoint" />
            <Array as="points">
              <mxPoint x="90" y="835" />
              <mxPoint x="90" y="865" />
            </Array>
            <mxPoint x="55" y="865" as="targetPoint" />
            <mxPoint as="offset" />
          </mxGeometry>
        </mxCell>
        <mxCell id="5y_z80_yedbfLqYKamo8-130" style="edgeStyle=orthogonalEdgeStyle;rounded=0;orthogonalLoop=1;jettySize=auto;html=1;curved=0;endArrow=open;endFill=0;exitX=0;exitY=1;exitDx=0;exitDy=-5;exitPerimeter=0;strokeColor=#67AB9F;entryX=0;entryY=0;entryDx=0;entryDy=5;entryPerimeter=0;" edge="1" parent="5y_z80_yedbfLqYKamo8-103" source="5y_z80_yedbfLqYKamo8-113" target="5y_z80_yedbfLqYKamo8-124">
          <mxGeometry relative="1" as="geometry">
            <mxPoint x="45" y="567.5" as="sourcePoint" />
            <mxPoint x="45" y="750" as="targetPoint" />
            <Array as="points">
              <mxPoint x="10" y="565" />
              <mxPoint x="10" y="745" />
            </Array>
          </mxGeometry>
        </mxCell>
        <mxCell id="5y_z80_yedbfLqYKamo8-131" value="create object from submodule" style="endArrow=open;startArrow=none;endFill=0;startFill=0;endSize=6;html=1;verticalAlign=bottom;labelBackgroundColor=none;strokeWidth=1;rounded=0;exitX=1;exitY=0;exitDx=0;exitDy=5;exitPerimeter=0;fontSize=7;" edge="1" parent="1" source="5y_z80_yedbfLqYKamo8-101" target="5y_z80_yedbfLqYKamo8-104">
          <mxGeometry width="160" relative="1" as="geometry">
            <mxPoint x="3975" y="1560" as="sourcePoint" />
            <mxPoint x="4085" y="1560" as="targetPoint" />
          </mxGeometry>
        </mxCell>
        <mxCell id="5y_z80_yedbfLqYKamo8-132" value="object has been initialized" style="html=1;verticalAlign=bottom;labelBackgroundColor=none;endArrow=open;endFill=0;dashed=1;rounded=0;exitX=0;exitY=1;exitDx=0;exitDy=-5;exitPerimeter=0;fontSize=7;" edge="1" parent="1" source="5y_z80_yedbfLqYKamo8-104" target="5y_z80_yedbfLqYKamo8-101">
          <mxGeometry width="160" relative="1" as="geometry">
            <mxPoint x="3515" y="1579.83" as="sourcePoint" />
            <mxPoint x="3675" y="1579.83" as="targetPoint" />
          </mxGeometry>
        </mxCell>
        <mxCell id="5y_z80_yedbfLqYKamo8-133" value="create QSSL object" style="endArrow=open;startArrow=none;endFill=0;startFill=0;endSize=6;html=1;verticalAlign=bottom;labelBackgroundColor=none;strokeWidth=1;rounded=0;exitX=1;exitY=0;exitDx=0;exitDy=5;exitPerimeter=0;fontSize=7;" edge="1" parent="1" source="5y_z80_yedbfLqYKamo8-96" target="5y_z80_yedbfLqYKamo8-101">
          <mxGeometry x="-0.4483" width="160" relative="1" as="geometry">
            <mxPoint x="3595" y="1420" as="sourcePoint" />
            <mxPoint x="3630" y="1420" as="targetPoint" />
            <mxPoint as="offset" />
          </mxGeometry>
        </mxCell>
        <mxCell id="5y_z80_yedbfLqYKamo8-134" value="object is not initialized" style="html=1;verticalAlign=bottom;labelBackgroundColor=none;endArrow=open;endFill=0;dashed=1;rounded=0;fontSize=7;entryX=1;entryY=1;entryDx=0;entryDy=-5;entryPerimeter=0;" edge="1" parent="1" source="5y_z80_yedbfLqYKamo8-105" target="5y_z80_yedbfLqYKamo8-102">
          <mxGeometry width="160" relative="1" as="geometry">
            <mxPoint x="3870" y="1480" as="sourcePoint" />
            <mxPoint x="3720" y="1480" as="targetPoint" />
          </mxGeometry>
        </mxCell>
        <mxCell id="5y_z80_yedbfLqYKamo8-135" value=": Database" style="shape=umlLifeline;perimeter=lifelinePerimeter;whiteSpace=wrap;html=1;container=1;dropTarget=0;collapsible=0;recursiveResize=0;outlineConnect=0;portConstraint=eastwest;newEdgeStyle={&quot;curved&quot;:0,&quot;rounded&quot;:0};fontSize=9;" vertex="1" parent="1">
          <mxGeometry x="3980" y="1310" width="100" height="970" as="geometry" />
        </mxCell>
        <mxCell id="5y_z80_yedbfLqYKamo8-136" value="" style="html=1;points=[[0,0,0,0,5],[0,1,0,0,-5],[1,0,0,0,5],[1,1,0,0,-5]];perimeter=orthogonalPerimeter;outlineConnect=0;targetShapes=umlLifeline;portConstraint=eastwest;newEdgeStyle={&quot;curved&quot;:0,&quot;rounded&quot;:0};" vertex="1" parent="5y_z80_yedbfLqYKamo8-135">
          <mxGeometry x="45" y="430" width="10" height="40" as="geometry" />
        </mxCell>
        <mxCell id="5y_z80_yedbfLqYKamo8-137" value="" style="html=1;points=[[0,0,0,0,5],[0,1,0,0,-5],[1,0,0,0,5],[1,1,0,0,-5]];perimeter=orthogonalPerimeter;outlineConnect=0;targetShapes=umlLifeline;portConstraint=eastwest;newEdgeStyle={&quot;curved&quot;:0,&quot;rounded&quot;:0};" vertex="1" parent="5y_z80_yedbfLqYKamo8-135">
          <mxGeometry x="45" y="590" width="10" height="40" as="geometry" />
        </mxCell>
        <mxCell id="5y_z80_yedbfLqYKamo8-138" value="" style="html=1;points=[[0,0,0,0,5],[0,1,0,0,-5],[1,0,0,0,5],[1,1,0,0,-5]];perimeter=orthogonalPerimeter;outlineConnect=0;targetShapes=umlLifeline;portConstraint=eastwest;newEdgeStyle={&quot;curved&quot;:0,&quot;rounded&quot;:0};" vertex="1" parent="5y_z80_yedbfLqYKamo8-135">
          <mxGeometry x="45" y="60" width="10" height="50" as="geometry" />
        </mxCell>
        <mxCell id="5y_z80_yedbfLqYKamo8-139" value="connect" style="edgeStyle=orthogonalEdgeStyle;rounded=0;orthogonalLoop=1;jettySize=auto;html=1;curved=0;fontSize=7;endArrow=open;endFill=0;strokeColor=#97D077;exitX=1;exitY=0;exitDx=0;exitDy=5;exitPerimeter=0;" edge="1" parent="5y_z80_yedbfLqYKamo8-135" source="5y_z80_yedbfLqYKamo8-138" target="5y_z80_yedbfLqYKamo8-140">
          <mxGeometry x="0.0588" relative="1" as="geometry">
            <mxPoint x="55" y="60" as="sourcePoint" />
            <Array as="points">
              <mxPoint x="90" y="65" />
              <mxPoint x="90" y="85" />
            </Array>
            <mxPoint as="offset" />
          </mxGeometry>
        </mxCell>
        <mxCell id="5y_z80_yedbfLqYKamo8-140" value="" style="html=1;points=[[0,0,0,0,5],[0,1,0,0,-5],[1,0,0,0,5],[1,1,0,0,-5]];perimeter=orthogonalPerimeter;outlineConnect=0;targetShapes=umlLifeline;portConstraint=eastwest;newEdgeStyle={&quot;curved&quot;:0,&quot;rounded&quot;:0};" vertex="1" parent="5y_z80_yedbfLqYKamo8-135">
          <mxGeometry x="55" y="80" width="10" height="10" as="geometry" />
        </mxCell>
        <mxCell id="5y_z80_yedbfLqYKamo8-141" value="" style="html=1;points=[[0,0,0,0,5],[0,1,0,0,-5],[1,0,0,0,5],[1,1,0,0,-5]];perimeter=orthogonalPerimeter;outlineConnect=0;targetShapes=umlLifeline;portConstraint=eastwest;newEdgeStyle={&quot;curved&quot;:0,&quot;rounded&quot;:0};" vertex="1" parent="5y_z80_yedbfLqYKamo8-135">
          <mxGeometry x="45" y="910" width="10" height="40" as="geometry" />
        </mxCell>
        <mxCell id="5y_z80_yedbfLqYKamo8-142" value="disconnect" style="edgeStyle=orthogonalEdgeStyle;rounded=0;orthogonalLoop=1;jettySize=auto;html=1;curved=0;fontSize=7;endArrow=open;endFill=0;strokeColor=#97D077;exitX=1;exitY=0;exitDx=0;exitDy=5;exitPerimeter=0;" edge="1" parent="5y_z80_yedbfLqYKamo8-135" source="5y_z80_yedbfLqYKamo8-141" target="5y_z80_yedbfLqYKamo8-143">
          <mxGeometry x="0.0588" relative="1" as="geometry">
            <mxPoint x="55" y="910" as="sourcePoint" />
            <Array as="points">
              <mxPoint x="90" y="915" />
              <mxPoint x="90" y="935" />
            </Array>
            <mxPoint as="offset" />
          </mxGeometry>
        </mxCell>
        <mxCell id="5y_z80_yedbfLqYKamo8-143" value="" style="html=1;points=[[0,0,0,0,5],[0,1,0,0,-5],[1,0,0,0,5],[1,1,0,0,-5]];perimeter=orthogonalPerimeter;outlineConnect=0;targetShapes=umlLifeline;portConstraint=eastwest;newEdgeStyle={&quot;curved&quot;:0,&quot;rounded&quot;:0};" vertex="1" parent="5y_z80_yedbfLqYKamo8-135">
          <mxGeometry x="55" y="930" width="10" height="10" as="geometry" />
        </mxCell>
        <mxCell id="5y_z80_yedbfLqYKamo8-144" value="raise runtime error" style="html=1;verticalAlign=bottom;labelBackgroundColor=none;endArrow=open;endFill=0;dashed=1;rounded=0;fontSize=7;exitX=0;exitY=1;exitDx=0;exitDy=-5;exitPerimeter=0;" edge="1" parent="1" source="5y_z80_yedbfLqYKamo8-102" target="5y_z80_yedbfLqYKamo8-96">
          <mxGeometry x="0.4" width="160" relative="1" as="geometry">
            <mxPoint x="3700" y="1480" as="sourcePoint" />
            <mxPoint x="3550" y="1480" as="targetPoint" />
            <mxPoint as="offset" />
          </mxGeometry>
        </mxCell>
        <mxCell id="5y_z80_yedbfLqYKamo8-145" value="call function of Celestial Objects" style="endArrow=open;startArrow=none;endFill=0;startFill=0;endSize=6;html=1;verticalAlign=bottom;labelBackgroundColor=none;strokeWidth=1;rounded=0;fontSize=7;entryX=0;entryY=0;entryDx=0;entryDy=5;entryPerimeter=0;" edge="1" parent="1" source="5y_z80_yedbfLqYKamo8-97" target="5y_z80_yedbfLqYKamo8-106">
          <mxGeometry x="-0.5806" width="160" relative="1" as="geometry">
            <mxPoint x="3630" y="1670" as="sourcePoint" />
            <mxPoint x="3780" y="1670" as="targetPoint" />
            <mxPoint as="offset" />
          </mxGeometry>
        </mxCell>
        <mxCell id="5y_z80_yedbfLqYKamo8-146" value="request object&#39;s info (name and ...)" style="html=1;verticalAlign=bottom;labelBackgroundColor=none;endArrow=open;endFill=0;dashed=1;rounded=0;fontSize=7;" edge="1" parent="1" source="5y_z80_yedbfLqYKamo8-110" target="5y_z80_yedbfLqYKamo8-98">
          <mxGeometry x="0.5161" width="160" relative="1" as="geometry">
            <mxPoint x="3860" y="1630" as="sourcePoint" />
            <mxPoint x="3570" y="1630" as="targetPoint" />
            <Array as="points">
              <mxPoint x="3830" y="1630" />
            </Array>
            <mxPoint as="offset" />
          </mxGeometry>
        </mxCell>
        <mxCell id="5y_z80_yedbfLqYKamo8-147" value="provide object&#39;s info (name and ...)" style="endArrow=open;startArrow=none;endFill=0;startFill=0;endSize=6;html=1;verticalAlign=bottom;labelBackgroundColor=none;strokeWidth=1;rounded=0;fontSize=7;exitX=1;exitY=0;exitDx=0;exitDy=5;exitPerimeter=0;entryX=0;entryY=0;entryDx=0;entryDy=5;entryPerimeter=0;" edge="1" parent="1">
          <mxGeometry x="-0.5161" width="160" relative="1" as="geometry">
            <mxPoint x="3555" y="1649.83" as="sourcePoint" />
            <mxPoint x="3865" y="1649.83" as="targetPoint" />
            <mxPoint as="offset" />
          </mxGeometry>
        </mxCell>
        <mxCell id="5y_z80_yedbfLqYKamo8-148" value="request to save object" style="html=1;verticalAlign=bottom;labelBackgroundColor=none;endArrow=open;endFill=0;dashed=1;rounded=0;fontSize=7;" edge="1" parent="1">
          <mxGeometry x="0.5161" width="160" relative="1" as="geometry">
            <mxPoint x="3865" y="1730" as="sourcePoint" />
            <mxPoint x="3555" y="1730" as="targetPoint" />
            <Array as="points">
              <mxPoint x="3830" y="1730" />
            </Array>
            <mxPoint as="offset" />
          </mxGeometry>
        </mxCell>
        <mxCell id="5y_z80_yedbfLqYKamo8-149" value="provide response" style="endArrow=open;startArrow=none;endFill=0;startFill=0;endSize=6;html=1;verticalAlign=bottom;labelBackgroundColor=none;strokeWidth=1;rounded=0;fontSize=7;exitX=1;exitY=0;exitDx=0;exitDy=5;exitPerimeter=0;entryX=0;entryY=0;entryDx=0;entryDy=5;entryPerimeter=0;" edge="1" parent="1">
          <mxGeometry x="-0.5161" width="160" relative="1" as="geometry">
            <mxPoint x="3555" y="1750" as="sourcePoint" />
            <mxPoint x="3865" y="1750" as="targetPoint" />
            <mxPoint as="offset" />
          </mxGeometry>
        </mxCell>
        <mxCell id="5y_z80_yedbfLqYKamo8-150" value="notify result" style="html=1;verticalAlign=bottom;labelBackgroundColor=none;endArrow=open;endFill=0;dashed=1;rounded=0;fontSize=7;" edge="1" parent="1" source="5y_z80_yedbfLqYKamo8-136">
          <mxGeometry x="0.6809" width="160" relative="1" as="geometry">
            <mxPoint x="3865" y="1770" as="sourcePoint" />
            <mxPoint x="3555" y="1770" as="targetPoint" />
            <Array as="points">
              <mxPoint x="3830" y="1770" />
            </Array>
            <mxPoint as="offset" />
          </mxGeometry>
        </mxCell>
        <mxCell id="5y_z80_yedbfLqYKamo8-151" value="save Celestial Object" style="endArrow=open;startArrow=none;endFill=0;startFill=0;endSize=6;html=1;verticalAlign=bottom;labelBackgroundColor=none;strokeWidth=1;rounded=0;fontSize=7;" edge="1" parent="1">
          <mxGeometry width="160" relative="1" as="geometry">
            <mxPoint x="3875" y="1750" as="sourcePoint" />
            <mxPoint x="4025" y="1750" as="targetPoint" />
            <mxPoint as="offset" />
          </mxGeometry>
        </mxCell>
        <mxCell id="5y_z80_yedbfLqYKamo8-152" value="request to load object" style="endArrow=open;startArrow=none;endFill=0;startFill=0;endSize=6;html=1;verticalAlign=bottom;labelBackgroundColor=none;strokeWidth=1;rounded=0;fontSize=7;exitX=1;exitY=0;exitDx=0;exitDy=5;exitPerimeter=0;entryX=0;entryY=0;entryDx=0;entryDy=5;entryPerimeter=0;" edge="1" parent="1">
          <mxGeometry x="-0.5161" width="160" relative="1" as="geometry">
            <mxPoint x="3555" y="1820" as="sourcePoint" />
            <mxPoint x="3865" y="1820" as="targetPoint" />
            <mxPoint as="offset" />
          </mxGeometry>
        </mxCell>
        <mxCell id="5y_z80_yedbfLqYKamo8-153" value="request object info (load method and ID or ...)" style="endArrow=none;startArrow=open;endFill=0;startFill=0;endSize=6;html=1;verticalAlign=bottom;labelBackgroundColor=none;strokeWidth=1;rounded=0;fontSize=6;exitX=1;exitY=0;exitDx=0;exitDy=5;exitPerimeter=0;entryX=0;entryY=0;entryDx=0;entryDy=5;entryPerimeter=0;startSize=6;" edge="1" parent="1">
          <mxGeometry x="-0.4516" width="160" relative="1" as="geometry">
            <mxPoint x="3555" y="1840" as="sourcePoint" />
            <mxPoint x="3865" y="1840" as="targetPoint" />
            <mxPoint as="offset" />
          </mxGeometry>
        </mxCell>
        <mxCell id="5y_z80_yedbfLqYKamo8-154" value="provide object&#39;s details and load method" style="endArrow=open;startArrow=none;endFill=0;startFill=0;endSize=6;html=1;verticalAlign=bottom;labelBackgroundColor=none;strokeWidth=1;rounded=0;fontSize=7;exitX=1;exitY=0;exitDx=0;exitDy=5;exitPerimeter=0;entryX=0;entryY=0;entryDx=0;entryDy=5;entryPerimeter=0;" edge="1" parent="1">
          <mxGeometry x="-0.5161" width="160" relative="1" as="geometry">
            <mxPoint x="3555" y="1859.8000000000002" as="sourcePoint" />
            <mxPoint x="3865" y="1859.8000000000002" as="targetPoint" />
            <mxPoint as="offset" />
          </mxGeometry>
        </mxCell>
        <mxCell id="5y_z80_yedbfLqYKamo8-155" value="execute query to load Celestial Object" style="endArrow=open;startArrow=none;endFill=0;startFill=0;endSize=6;html=1;verticalAlign=bottom;labelBackgroundColor=none;strokeWidth=1;rounded=0;fontSize=7;" edge="1" parent="1">
          <mxGeometry width="160" relative="1" as="geometry">
            <mxPoint x="3875" y="1910" as="sourcePoint" />
            <mxPoint x="4025" y="1910" as="targetPoint" />
            <mxPoint as="offset" />
          </mxGeometry>
        </mxCell>
        <mxCell id="5y_z80_yedbfLqYKamo8-156" value="return loaded Celestial Object" style="html=1;verticalAlign=bottom;labelBackgroundColor=none;endArrow=open;endFill=0;dashed=1;rounded=0;fontSize=7;" edge="1" parent="1" source="5y_z80_yedbfLqYKamo8-137" target="5y_z80_yedbfLqYKamo8-120">
          <mxGeometry width="160" relative="1" as="geometry">
            <mxPoint x="4025" y="1930" as="sourcePoint" />
            <mxPoint x="3900" y="1930" as="targetPoint" />
            <Array as="points">
              <mxPoint x="3990" y="1930" />
            </Array>
            <mxPoint as="offset" />
          </mxGeometry>
        </mxCell>
        <mxCell id="5y_z80_yedbfLqYKamo8-157" value="notify result" style="html=1;verticalAlign=bottom;labelBackgroundColor=none;endArrow=open;endFill=0;dashed=1;rounded=0;fontSize=7;exitX=0;exitY=1;exitDx=0;exitDy=-5;exitPerimeter=0;" edge="1" parent="1" source="5y_z80_yedbfLqYKamo8-118" target="5y_z80_yedbfLqYKamo8-99">
          <mxGeometry x="0.5161" width="160" relative="1" as="geometry">
            <mxPoint x="3920" y="2080" as="sourcePoint" />
            <mxPoint x="3450" y="2080" as="targetPoint" />
            <Array as="points">
              <mxPoint x="3720" y="2025" />
            </Array>
            <mxPoint as="offset" />
          </mxGeometry>
        </mxCell>
        <mxCell id="5y_z80_yedbfLqYKamo8-158" value="" style="shape=umlDestroy;whiteSpace=wrap;html=1;strokeWidth=3;targetShapes=umlLifeline;" vertex="1" parent="1">
          <mxGeometry x="4015" y="2270" width="30" height="30" as="geometry" />
        </mxCell>
        <mxCell id="5y_z80_yedbfLqYKamo8-159" value="return database object" style="endArrow=open;startArrow=none;endFill=0;startFill=0;endSize=6;html=1;verticalAlign=bottom;labelBackgroundColor=none;strokeWidth=1;rounded=0;fontSize=7;" edge="1" parent="1" source="5y_z80_yedbfLqYKamo8-138" target="5y_z80_yedbfLqYKamo8-104">
          <mxGeometry width="160" relative="1" as="geometry">
            <mxPoint x="3725" y="1470" as="sourcePoint" />
            <mxPoint x="3875" y="1470" as="targetPoint" />
            <Array as="points">
              <mxPoint x="3970" y="1410" />
            </Array>
          </mxGeometry>
        </mxCell>
        <mxCell id="5y_z80_yedbfLqYKamo8-160" value="notify result" style="html=1;verticalAlign=bottom;labelBackgroundColor=none;endArrow=open;endFill=0;dashed=1;rounded=0;fontSize=7;exitX=0;exitY=1;exitDx=0;exitDy=-5;exitPerimeter=0;" edge="1" parent="1">
          <mxGeometry x="0.5161" width="160" relative="1" as="geometry">
            <mxPoint x="3865" y="2180" as="sourcePoint" />
            <mxPoint x="3555" y="2180" as="targetPoint" />
            <Array as="points">
              <mxPoint x="3720" y="2180" />
            </Array>
            <mxPoint as="offset" />
          </mxGeometry>
        </mxCell>
        <mxCell id="5y_z80_yedbfLqYKamo8-161" value="" style="html=1;verticalAlign=bottom;labelBackgroundColor=none;endArrow=none;endFill=0;dashed=1;rounded=0;entryX=1;entryY=0.518;entryDx=0;entryDy=0;entryPerimeter=0;exitX=0;exitY=0.519;exitDx=0;exitDy=0;exitPerimeter=0;" edge="1" parent="1">
          <mxGeometry width="160" relative="1" as="geometry">
            <mxPoint x="3760" y="2041.8900000000003" as="sourcePoint" />
            <mxPoint x="4050" y="2041.5800000000004" as="targetPoint" />
          </mxGeometry>
        </mxCell>
        <mxCell id="5y_z80_yedbfLqYKamo8-162" value="User" style="text;html=1;align=center;verticalAlign=middle;resizable=0;points=[];autosize=1;strokeColor=none;fillColor=none;fontSize=10;" vertex="1" parent="1">
          <mxGeometry x="3555" y="1316" width="40" height="30" as="geometry" />
        </mxCell>
        <mxCell id="5y_z80_yedbfLqYKamo8-164" value="[ call load ]" style="text;html=1;fontSize=8;" vertex="1" parent="1">
          <mxGeometry x="3490" y="1795" width="60" height="20" as="geometry" />
        </mxCell>
      </root>
    </mxGraphModel>
  </diagram>
</mxfile>
